<?xml version="1.0" encoding="UTF-8" standalone="no"?>
<!-- Created with Inkscape (http://www.inkscape.org/) -->

<svg
   width="512"
   height="512"
   viewBox="0 0 135.46666 135.46667"
   version="1.1"
   id="svg1"
   inkscape:version="1.3 (0e150ed6c4, 2023-07-21)"
   sodipodi:docname="logo.svg"
   xmlns:inkscape="http://www.inkscape.org/namespaces/inkscape"
   xmlns:sodipodi="http://sodipodi.sourceforge.net/DTD/sodipodi-0.dtd"
   xmlns="http://www.w3.org/2000/svg"
   xmlns:svg="http://www.w3.org/2000/svg">
  <sodipodi:namedview
     id="namedview1"
     pagecolor="#ffffff"
     bordercolor="#666666"
     borderopacity="1.0"
     inkscape:showpageshadow="2"
     inkscape:pageopacity="0.0"
     inkscape:pagecheckerboard="true"
     inkscape:deskcolor="#d1d1d1"
     inkscape:document-units="mm"
     inkscape:zoom="1.2329405"
     inkscape:cx="216.55546"
     inkscape:cy="274.14137"
     inkscape:window-width="1500"
     inkscape:window-height="930"
     inkscape:window-x="-6"
     inkscape:window-y="-6"
     inkscape:window-maximized="1"
     inkscape:current-layer="layer1"
     showgrid="false" />
  <defs
     id="defs1" />
  <g
     inkscape:label="Layer 1"
     inkscape:groupmode="layer"
     id="layer1">
    <circle
       style="fill:#ffffff;stroke:none;stroke-width:4.99999;stroke-linecap:round;stroke-linejoin:round"
       id="path3"
       cx="67.73333"
       cy="67.73333"
       r="67.733337" />
    <path
       style="color:#000000;fill:#000000;stroke:#ffffff;stroke-width:5;stroke-linecap:round;stroke-linejoin:round;stroke-dasharray:none;stroke-opacity:1"
       d="m 67.732422,2.2246025 c -36.091108,0 -65.5078195,29.4167115 -65.5078195,65.5078195 0,36.091108 29.4167115,65.509778 65.5078195,65.509778 36.091108,0 65.509778,-29.41867 65.509778,-65.509778 0,-36.091108 -29.41867,-65.5078195 -65.509778,-65.5078195 z m 0,15.0000015 c 27.984514,0 50.509778,22.523304 50.509778,50.507818 0,27.984514 -22.525264,50.509778 -50.509778,50.509778 -27.984514,0 -50.507818,-22.525264 -50.507818,-50.509778 0,-27.984514 22.523304,-50.507818 50.507818,-50.507818 z"
       id="path1" />
    <path
       style="color:#000000;fill:#000000;stroke:#ffffff;stroke-width:5;stroke-linecap:round;stroke-dasharray:none;stroke-opacity:1"
       d="m 67.732422,16.749995 a 7.5000008,7.5000008 0 0 0 -7.500001,7.5 l 0.002,46.589849 19.656252,19.658205 a 7.5000008,7.5000008 0 0 0 10.607423,0 7.5000008,7.5000008 0 0 0 0,-10.607423 L 75.232423,64.626953 V 24.249995 a 7.5000008,7.5000008 0 0 0 -7.500001,-7.5 z"
       id="path2" />
  </g>
</svg>
